<svg xmlns="http://www.w3.org/2000/svg" viewBox="0 0 256 256" role="img" aria-label="Java">
  <defs>
    <linearGradient id="g-java" x1="0%" y1="0%" x2="100%" y2="100%">
      <stop offset="0%" stop-color="#111827"/>
      <stop offset="100%" stop-color="#f97316"/>
    </linearGradient>
  </defs>
  <rect width="256" height="256" rx="40" fill="url(#g-java)"/>
  <circle cx="128" cy="128" r="86" fill="rgba(255,255,255,0.08)"/>
  <path d="M94 170c8 8 22 14 34 14 17 0 30-7 30-18 0-10-11-15-25-20-18-7-31-14-31-32 0-18 15-31 38-31 14 0 27 4 36 11l-10 13c-8-5-18-8-28-8-13 0-21 5-21 13 0 8 9 13 23 18 21 7 35 15 35 34 0 20-18 34-44 34-17 0-33-5-44-15l7-15z" fill="#fff"/>
  <text x="128" y="74" text-anchor="middle" font-family="Arial, Helvetica, sans-serif" font-size="28" font-weight="700" fill="#fff">JAVA</text>
</svg>
